Coordinates
version=1
nRows=29
nColumns=24
inDegrees=yes

Units are S.I. units (second, meters, Newtons, ...)
Angles are in degrees.

endheader
time	pelvis_tilt	pelvis_list	pelvis_rotation	pelvis_tx	pelvis_ty	pelvis_tz	hip_flexion_r	hip_adduction_r	hip_rotation_r	knee_angle_r	ankle_angle_r	subtalar_angle_r	mtp_angle_r	hip_flexion_l	hip_adduction_l	hip_rotation_l	knee_angle_l	ankle_angle_l	subtalar_angle_l	mtp_angle_l	lumbar_extension	lumbar_bending	lumbar_rotation
      1.12100000	     -0.90686068	      1.93373138	     -7.58742852	     -0.12653828	      0.99435636	      0.33212072	    -13.47397072	     -0.27181190	     -1.45369503	    -11.65061696	     14.28560175	     -0.50631436	      9.33418776	     20.73875615	      2.31760494	    -11.31662495	      5.89636369	      1.22618562	     -8.74751709	      7.62221508	     -3.93025045	     -1.80831492	     14.73280279
      1.12516667	     -0.86015128	      2.04314438	     -7.64859677	     -0.12050355	      0.99388828	      0.33202200	    -13.62557704	     -0.48763939	     -1.48544262	    -12.14489792	     14.26943350	     -0.33199187	      9.43979451	     20.72889389	      2.48613612	    -11.12311474	      5.52719947	      1.13329944	     -9.13510082	      7.58928533	     -3.92650195	     -1.96145131	     14.84025669
      1.12933333	     -0.82503263	      2.16387039	     -7.71582170	     -0.11444879	      0.99343782	      0.33192932	    -13.74432300	     -0.71656866	     -1.51196104	    -12.67403649	     14.23088520	     -0.16665812	      9.56844532	     20.72878981	      2.66009981	    -10.88468157	      5.11177532	      0.98737978	     -9.56966038	      7.57216912	     -3.90526224	     -2.12570623	     14.95322101
      1.13350000	     -0.77888783	      2.29664428	     -7.78207447	     -0.10835378	      0.99302963	      0.33183023	    -13.86076304	     -0.96126266	     -1.54732703	    -13.22872147	     14.16652444	      0.00340108	      9.72574535	     20.71110170	      2.84812068	    -10.60418361	      4.66277496	      0.78399098	    -10.04876875	      7.57212569	     -3.89086577	     -2.30625955	     15.06341472
      1.13766667	     -0.76341665	      2.43921427	     -7.85368662	     -0.10222739	      0.99261970	      0.33174329	    -13.92164319	     -1.21340622	     -1.57184846	    -13.82404364	     14.07441714	      0.15665966	      9.90364544	     20.72653105	      3.03711488	    -10.30308187	      4.17260430	      0.53121310	    -10.54943378	      7.58780299	     -3.83225203	     -2.49377343	     15.17484034
      1.14183333	     -0.71718179	      2.59105102	     -7.92342050	     -0.09607800	      0.99227657	      0.33164486	    -13.99949023	     -1.48155388	     -1.60880964	    -14.44673347	     13.95145957	      0.31753470	     10.13036845	     20.69808181	      3.24207952	     -9.95540162	      3.67497877	      0.21971962	    -11.10243759	      7.62282480	     -3.81188559	     -2.69523555	     15.28734548
      1.14600000	     -0.68371939	      2.75297014	     -7.99750674	     -0.08989655	      0.99194857	      0.33154523	    -14.04042128	     -1.76156655	     -1.64654356	    -15.11000338	     13.80184495	      0.47405154	     10.38696701	     20.68280575	      3.45348775	     -9.60141764	      3.14975061	     -0.13852707	    -11.66025600	      7.67386109	     -3.76711085	     -2.90529795	     15.39400772
      1.15016667	     -0.64014955	      2.91700004	     -8.05496996	     -0.08369348	      0.99167053	      0.33142491	    -14.08338609	     -2.04020255	     -1.68744428	    -15.78681898	     13.59256603	      0.60341622	     10.81791268	     20.65280547	      3.67462862	     -9.17854242	      2.60812573	     -0.50893904	    -12.30303109	      7.77177547	     -3.73430186	     -3.12819776	     15.49831255
      1.15433333	     -0.60447078	      3.10096901	     -8.12149405	     -0.07745685	      0.99141155	      0.33130016	    -14.08224196	     -2.34693967	     -1.74834544	    -16.52707347	     13.37370658	      0.75859137	     11.32067657	     20.62925531	      3.91185622	     -8.80507815	      2.06008780	     -0.95521754	    -12.89245231	      7.89286437	     -3.68012947	     -3.37136560	     15.60782479
      1.15850000	     -0.59763097	      3.28775990	     -8.21990902	     -0.07122637	      0.99116026	      0.33119371	    -13.99943955	     -2.66388066	     -1.77276744	    -17.35372226	     13.14217365	      0.91859056	     11.66164742	     20.63335789	      4.13445255	     -8.51749123	      1.50963514	     -1.46142980	    -13.37886049	      7.97299933	     -3.59317209	     -3.59486711	     15.69454014
      1.16266667	     -0.55676490	      3.48798058	     -8.29249911	     -0.06495741	      0.99097974	      0.33104982	    -13.94753631	     -2.99631662	     -1.83309231	    -18.18678913	     12.84769430	      1.07614235	     12.05506091	     20.59544373	      4.38665953	     -8.16359115	      0.95849836	     -1.97145880	    -13.96085937	      8.06392198	     -3.54017809	     -3.85328563	     15.78847430
      1.16683333	     -0.50893917	      3.68431828	     -8.34289177	     -0.05866569	      0.99085413	      0.33088678	    -13.89921130	     -3.31751357	     -1.88753472	    -19.01039111	     12.37946507	      1.05765169	     17.84392173	     20.56287356	      4.63739519	     -7.84173821	      0.36846599	     -2.45818761	    -14.48771336	      9.39401065	     -3.48885967	     -4.11364761	     15.78497775
      1.17100000	     -0.46845789	      3.90412544	     -8.42943742	     -0.05237927	      0.99074982	      0.33073797	    -13.77251860	     -3.68269869	     -1.94978690	    -19.96732117	     12.03406284	      1.24169047	     17.89188271	     20.53429214	      4.89656507	     -7.63145183	     -0.21280551	     -2.94186993	    -14.86332845	      9.40361191	     -3.42699320	     -4.39076217	     15.91568274
      1.17516667	     -0.42102015	      4.11607847	     -8.47869332	     -0.04609990	      0.99068526	      0.33052862	    -13.64500156	     -4.03140640	     -2.02410079	    -20.93721534	     11.62775525	      1.40559779	     18.01962665	     20.50624137	      5.16176335	     -7.35176237	     -0.81871137	     -3.43199538	    -15.38222145	      9.42164286	     -3.38030693	     -4.66350321	     15.99079087
      1.17933333	     -0.36413783	      4.33955146	     -8.53214172	     -0.03980750	      0.99067059	      0.33032120	    -13.49041270	     -4.39752919	     -2.09710353	    -21.96511884	     11.14500641	      1.53316712	     18.27497443	     20.45194871	      5.43765013	     -7.09443844	     -1.39579887	     -3.88976027	    -15.83738116	      9.44985096	     -3.33565938	     -4.94770120	     16.04317677
      1.18350000	     -0.31830641	      4.56359085	     -8.58416269	     -0.03354213	      0.99067718	      0.33009351	    -13.28719711	     -4.76582555	     -2.15839442	    -23.05131082	     10.66148405	      1.68036539	     18.51345930	     20.43688672	      5.70321864	     -6.96658335	     -2.02842176	     -4.34101156	    -16.14526517	      9.46766887	     -3.28425654	     -5.23070360	     16.06772070
      1.18766667	     -0.26014095	      4.79768678	     -8.63779551	     -0.02725814	      0.99074088	      0.32986051	    -13.06271715	     -5.15179863	     -2.22162285	    -24.18983239	     10.09310413	      1.78887229	     18.74805153	     20.38895519	      5.97954050	     -6.85232629	     -2.62479381	     -4.73878581	    -16.38991504	      9.47988489	     -3.23018090	     -5.51752544	     16.07682947
      1.19183333	     -0.17231963	      5.03870763	     -8.64880903	     -0.02100675	      0.99086036	      0.32958084	    -12.85455506	     -5.53819258	     -2.30610748	    -25.34940368	      9.45924581	      1.77970205	     23.24432056	     20.32188148	      6.27983551	     -6.69527008	     -3.24883634	     -5.10476318	    -16.71926250	      9.68873892	     -3.23413877	     -5.84766388	     16.02927266
      1.19600000	     -0.12753258	      5.25945614	     -8.68284448	     -0.01477111	      0.99098125	      0.32930193	    -12.55766040	     -5.90717512	     -2.34455461	    -26.57056204	      8.76739446	      1.91293485	     23.28873200	     20.31181219	      6.53402942	     -6.68840124	     -3.90942488	     -5.37387357	    -16.80328897	      9.68583670	     -3.18069908	     -6.10708931	     16.04640849
      1.20016667	     -0.04889470	      5.49062390	     -8.68987742	     -0.00856506	      0.99116764	      0.32900903	    -12.27822850	     -6.28007919	     -2.37665241	    -27.82046049	      8.05291659	      1.96684126	     23.33862500	     20.26783085	      6.81037860	     -6.66258840	     -4.57629861	     -5.59066952	    -16.88874777	      9.68222551	     -3.17700028	     -6.42009270	     16.01687307
      1.20433333	     -0.00119520	      5.72203149	     -8.69280252	     -0.00239693	      0.99131438	      0.32865951	    -11.90729717	     -6.66436310	     -2.43913298	    -29.17384122	      7.36903892	      2.08186385	     23.45032229	     20.25306636	      7.08381849	     -6.66388692	     -5.23179186	     -5.79397380	    -16.97086237	      9.67452822	     -3.12433556	     -6.69107222	     15.96352688
      1.20850000	      0.06674172	      5.95021165	     -8.67660813	      0.00374225	      0.99151947	      0.32830479	    -11.54470387	     -7.03736017	     -2.47669929	    -30.53912248	      6.62277285	      2.14256382	     23.59271605	     20.21632278	      7.35910282	     -6.67248802	     -5.89444409	     -5.93151028	    -17.00154492	      9.66331264	     -3.11054895	     -6.97968830	     15.88798373
      1.21266667	      0.19553584	      6.15497568	     -8.63267144	      0.00982925	      0.99184499	      0.32793230	    -11.24416720	     -7.37934001	     -2.50733976	    -31.90139393	      5.80421313	      2.10377208	     23.64081089	     20.11493889	      7.62841552	     -6.66753824	     -6.57210350	     -5.99411035	    -17.04576424	      9.65884257	     -3.19374748	     -7.25765820	     15.82973714
      1.21683333	      0.23559006	      6.40268709	     -8.60323347	      0.01589090	      0.99202089	      0.32755021	    -10.77373065	     -7.77607994	     -2.53668427	    -33.38096255	      5.05196549	      2.16999992	     26.90946832	     20.12057796	      7.91041647	     -6.79192607	     -7.26252232	     -5.95663920	    -16.78777600	      9.30957095	     -3.15141025	     -7.57426049	     15.71578777
      1.22100000	      0.27252639	      6.60044169	     -8.54903693	      0.02191273	      0.99226559	      0.32714493	    -10.30642594	     -8.09416967	     -2.50680428	    -34.83684899	      4.20451979	      2.11740957	     26.92941820	     20.09178756	      8.16149323	     -6.78491224	     -7.89177185	     -6.00727904	    -16.82449413	      9.30134363	     -3.11504378	     -7.81231041	     15.55133270
      1.22516667	      0.33466878	      6.80444652	     -8.48076021	      0.02788463	      0.99253521	      0.32672648	     -9.83944701	     -8.42114614	     -2.48628013	    -36.33382141	      3.40056225	      2.07830748	     26.94910309	     20.03872731	      8.42364546	     -6.81157401	     -8.52929262	     -5.96089479	    -16.74762086	      9.28856779	     -3.12316263	     -8.07681459	     15.39100762
      1.22933333	      0.43679301	      7.00840563	     -8.41253060	      0.03383070	      0.99288823	      0.32630353	     -9.40029605	     -8.75066191	     -2.45052013	    -37.83486026	      2.57541178	      1.99495759	     26.94838533	     19.90759649	      8.70203432	     -6.79832161	     -9.09746042	     -5.87723011	    -16.69281712	      9.28152718	     -3.17892865	     -8.34453082	     15.26045357
      1.23350000	      0.46110604	      7.19154979	     -8.31697508	      0.03969238	      0.99312452	      0.32585354	     -8.84734975	     -9.03789612	     -2.40686522	    -39.38495017	      1.82632161	      1.89239239	     26.93004390	     19.89180268	      8.94030721	     -6.86720319	     -9.73971597	     -5.75741617	    -16.53754137	      9.25878288	     -3.15784739	     -8.56936889	     15.03065509
      1.23766667	      0.56976117	      7.38185038	     -8.23264924	      0.04554936	      0.99350397	      0.32541872	     -8.37832342	     -9.34284397	     -2.35026446	    -40.91762622	      1.05763188	      1.75078397	     26.89695678	     19.72384476	      9.21535032	     -6.84564649	    -10.25550847	     -5.60678909	    -16.47005313	      9.24684132	     -3.23215652	     -8.82167505	     14.88086152
